<?xml version="1.0" standalone="no"?>
<!DOCTYPE svg PUBLIC "-//W3C//DTD SVG 20010904//EN"
 "http://www.w3.org/TR/2001/REC-SVG-20010904/DTD/svg10.dtd">
<svg version="1.0" xmlns="http://www.w3.org/2000/svg"
 width="512.000000pt" height="512.000000pt" viewBox="0 0 512.000000 512.000000"
 preserveAspectRatio="xMidYMid meet">
<metadata>
Created by potrace 1.14, written by Peter Selinger 2001-2017
</metadata>
<g transform="translate(0.000000,512.000000) scale(0.100000,-0.100000)"
fill="#000000" stroke="none">
<path d="M914 5101 c-189 -54 -337 -228 -362 -426 -3 -27 -6 -195 -6 -372 l-1
-323 -96 0 c-56 0 -116 -6 -146 -15 -104 -31 -195 -135 -228 -260 -20 -79 -20
-374 1 -455 28 -104 99 -194 192 -240 37 -19 67 -24 152 -27 58 -3 109 -6 115
-7 6 -2 10 -150 10 -418 l0 -416 -115 -4 c-133 -5 -183 -23 -254 -92 -40 -39
-88 -122 -103 -176 -3 -14 -8 -112 -9 -218 -3 -215 4 -258 59 -350 68 -114
153 -158 307 -161 58 -1 107 -4 110 -7 2 -3 5 -161 6 -352 2 -326 3 -351 23
-415 54 -168 167 -287 327 -342 l69 -24 1826 0 c2011 -1 1877 -5 2001 61 72
38 168 138 207 217 63 125 60 -4 58 2316 l-2 2110 -21 55 c-12 31 -31 75 -43
98 -33 64 -133 165 -199 200 -121 65 10 61 -1992 61 -1706 0 -1829 -2 -1886
-18z m3703 -312 c38 -14 71 -46 96 -94 l22 -40 0 -2095 0 -2095 -22 -42 c-13
-23 -39 -54 -60 -70 l-36 -28 -1800 -3 c-1756 -2 -1800 -2 -1842 17 -50 22
-90 75 -102 136 -7 31 -10 625 -4 656 0 4 52 9 114 11 91 3 121 8 159 27 97
47 176 155 198 269 10 53 7 381 -4 426 -24 99 -100 197 -190 243 -43 23 -68
28 -166 32 l-115 6 0 417 0 416 115 4 c101 3 121 7 166 30 95 50 159 133 189
247 17 66 17 375 0 441 -30 115 -98 204 -190 250 -41 20 -70 25 -165 30 l-115
5 0 330 c1 326 1 331 24 379 17 33 38 57 69 77 l46 29 1792 0 c1246 0 1801 -3
1821 -11z m-3598 -1147 c12 -23 12 -301 0 -324 -9 -17 -34 -18 -314 -18 -291
0 -305 1 -315 19 -13 26 -13 296 0 322 10 18 24 19 315 19 284 0 305 -1 314
-18z m1 -1847 c12 -31 11 -281 -1 -312 l-9 -23 -304 0 c-292 0 -306 1 -316 19
-13 25 -13 281 0 315 l10 26 305 0 305 0 10 -25z"/>
<path d="M2390 4189 c-19 -5 -48 -11 -65 -14 -16 -3 -37 -8 -45 -10 -8 -2 -26
-6 -40 -9 -75 -13 -203 -51 -256 -77 -126 -59 -224 -195 -269 -372 -21 -81
-23 -110 -21 -252 5 -220 42 -399 137 -650 176 -467 473 -920 848 -1296 256
-256 493 -423 732 -515 240 -93 470 -91 619 4 69 44 114 95 211 241 132 199
154 247 154 346 0 67 -5 89 -28 138 -32 64 -64 96 -262 262 -77 64 -158 133
-180 152 -22 19 -65 46 -95 61 -47 23 -67 27 -145 27 -106 -1 -160 -22 -231
-91 -74 -74 -124 -66 -211 33 -32 37 -65 74 -73 82 -67 70 -238 310 -336 472
-168 276 -177 326 -68 374 96 43 167 126 192 228 24 95 18 123 -85 402 -30 83
-66 182 -80 220 -45 121 -97 181 -195 225 -52 22 -155 32 -208 19z m90 -329
c21 -39 169 -454 164 -461 -2 -4 -32 -20 -67 -37 -77 -36 -109 -68 -147 -146
-54 -109 -67 -229 -39 -336 32 -117 270 -506 444 -725 246 -311 348 -386 525
-388 147 -1 207 20 279 99 39 41 46 45 63 35 25 -15 378 -312 378 -317 0 -18
-181 -283 -208 -304 -57 -45 -172 -47 -296 -6 -611 205 -1360 1153 -1537 1944
-30 137 -35 346 -9 432 20 65 57 122 92 141 21 11 132 44 184 54 16 3 56 11
89 19 33 7 63 14 67 15 4 0 12 -8 18 -19z"/>
</g>
</svg>
